# xmcd
#
# Track frame offsets:
#	150
#	15870
#	28170
#	39440
#	54580
#	92885
#	113235
#	130955
#	146142
#	164725
#	182782
#	199335
#	215562
#	233032
#	245850
#	264052
#	281000
#	295310
#	312870
#
# Disc length: 4388 seconds
#
# Revision: 0
# Processed by: cddbd v1.5.2PL0 Copyright (c) Steve Scherf et al.
# Submitted via: EasyCDDAExtractor 2010.6.0.0
#
DISCID=22112213
DTITLE=Various Artist - The Best Beer Drinking Album in the World... Ever! CD
DTITLE=1
DYEAR=1999
DGENRE=
TTITLE0=Mac Davis - It's Hard To Be Humble
TTITLE1=Roger Whittaker - If I Were A Rich Man
TTITLE2=Rolf Harris - Waltzing Matilda
TTITLE3=Juice Newton - Queen Of Harts
TTITLE4=Don McLean - American Pie
TTITLE5=Kris Kristofferson - Sunday Mornin' Comin' Down
TTITLE6=Peter Sarstedt - Take Off Yor Clothes
TTITLE7=Billy Ray Cyrus - Achy Breaky Heart
TTITLE8=Billy Idol - Mony Mony
TTITLE9=Opus - Life Is Life
TTITLE10=Chico and The Gypsies - Marina
TTITLE11=The Proclaimers - I'm Gonna Be (500 Miles)
TTITLE12=Bobby McFerrin - Don't Worry Be Happy
TTITLE13=Right Said Fred - I'm Too Sexy
TTITLE14=Hot Chocolate - You Sexy Thing
TTITLE15=Dr. Hook - Baby Makes Her Blue Jeans Talk (Feat. Ray Sawyer)
TTITLE16=Fool's Garden - Lemon Tree
TTITLE17=Sly Fox - Let's Go All The Way
TTITLE18=Smokie - Who The Fuck Is Alice?
EXTD=
EXTT0=
EXTT1=
EXTT2=
EXTT3=
EXTT4=
EXTT5=
EXTT6=
EXTT7=
EXTT8=
EXTT9=
EXTT10=
EXTT11=
EXTT12=
EXTT13=
EXTT14=
EXTT15=
EXTT16=
EXTT17=
EXTT18=
PLAYORDER=
